<svg width="949" height="172" viewBox="0 0 949 172" fill="none" xmlns="http://www.w3.org/2000/svg">
<path d="M45.1572 0L21.6904 135H0.948242L24.415 0H45.1572ZM96.3096 39.9023L48.585 85.4297L21.6025 109.424L19.1416 90.0879L38.8291 69.5215L69.7666 39.9023H96.3096ZM59.1318 135L36.4561 89.4727L51.2217 75.4102L81.8955 135H59.1318Z" fill="white"/>
<path d="M119.699 39.9023L103.176 135H82.5213L99.0447 39.9023H119.699ZM101.945 15.293C101.887 11.8945 103 9.11133 105.285 6.94336C107.57 4.77539 110.383 3.66211 113.722 3.60352C116.945 3.54492 119.699 4.54102 121.984 6.5918C124.328 8.58398 125.5 11.25 125.5 14.5898C125.558 17.9883 124.416 20.7422 122.072 22.8516C119.787 24.9609 117.004 26.0449 113.722 26.1035C110.5 26.1621 107.746 25.2246 105.461 23.291C103.176 21.2988 102.004 18.6328 101.945 15.293Z" fill="white"/>
<path d="M174.641 114.082L194.417 0H215.247L191.78 135H173.147L174.641 114.082ZM119.094 89.209L119.27 87.3633C120.032 81.5039 121.409 75.6445 123.401 69.7852C125.452 63.9258 128.206 58.5645 131.663 53.7012C135.178 48.8379 139.456 44.9707 144.495 42.0996C149.592 39.2285 155.569 37.8809 162.424 38.0566C168.401 38.2324 173.381 39.7852 177.366 42.7148C181.35 45.6445 184.456 49.4238 186.682 54.0527C188.967 58.6816 190.52 63.6914 191.34 69.082C192.161 74.4141 192.424 79.6289 192.131 84.7266L191.428 90.7031C190.491 96.0938 188.909 101.543 186.682 107.051C184.456 112.559 181.555 117.598 177.981 122.168C174.465 126.738 170.247 130.371 165.325 133.066C160.462 135.762 154.895 137.021 148.626 136.846C142.356 136.611 137.171 135.029 133.069 132.1C128.967 129.111 125.803 125.273 123.577 120.586C121.35 115.84 119.915 110.742 119.27 105.293C118.626 99.7852 118.567 94.4238 119.094 89.209ZM140.188 87.1875L140.012 89.0332C139.661 92.0801 139.514 95.332 139.573 98.7891C139.631 102.246 140.1 105.557 140.979 108.721C141.917 111.826 143.469 114.404 145.637 116.455C147.864 118.506 150.969 119.619 154.954 119.795C159.583 119.971 163.684 118.916 167.258 116.631C170.891 114.346 173.909 111.357 176.311 107.666C178.713 103.975 180.413 100.049 181.409 95.8887L183.87 79.8047C184.046 76.875 183.84 73.9746 183.254 71.1035C182.727 68.2324 181.76 65.625 180.354 63.2812C178.948 60.9375 177.073 59.0332 174.729 57.5684C172.444 56.0449 169.661 55.2539 166.379 55.1953C162.044 55.0195 158.294 55.8984 155.129 57.832C152.024 59.7656 149.446 62.3438 147.395 65.5664C145.403 68.7891 143.821 72.3047 142.649 76.1133C141.477 79.9219 140.657 83.6133 140.188 87.1875Z" fill="white"/>
<path d="M206.732 89.0332L206.996 87.0117C207.699 80.4492 209.31 74.209 211.829 68.291C214.349 62.373 217.689 57.1289 221.849 52.5586C226.068 47.9297 231.019 44.3262 236.703 41.748C242.445 39.1699 248.831 37.9688 255.863 38.1445C262.66 38.2617 268.49 39.668 273.353 42.3633C278.275 45.0586 282.259 48.6621 285.306 53.1738C288.412 57.627 290.579 62.7246 291.81 68.4668C293.04 74.1504 293.363 80.0977 292.777 86.3086L292.601 88.3301C291.839 94.8926 290.169 101.104 287.591 106.963C285.072 112.822 281.703 118.037 277.484 122.607C273.324 127.119 268.372 130.664 262.63 133.242C256.947 135.762 250.619 136.934 243.646 136.758C236.908 136.641 231.078 135.264 226.156 132.627C221.292 129.932 217.308 126.357 214.203 121.904C211.156 117.451 209.017 112.412 207.787 106.787C206.556 101.104 206.204 95.1855 206.732 89.0332ZM227.562 87.0117L227.386 89.0332C227.093 92.2559 227.064 95.6543 227.298 99.2285C227.533 102.803 228.236 106.143 229.408 109.248C230.579 112.354 232.396 114.902 234.857 116.895C237.318 118.887 240.599 119.941 244.701 120.059C249.037 120.176 252.816 119.297 256.038 117.422C259.261 115.547 261.956 113.027 264.124 109.863C266.292 106.699 268.021 103.242 269.31 99.4922C270.599 95.6836 271.449 91.9629 271.859 88.3301L272.035 86.3086C272.386 83.1445 272.445 79.7754 272.21 76.2012C271.976 72.5684 271.273 69.1699 270.101 66.0059C268.929 62.7832 267.113 60.1758 264.652 58.1836C262.191 56.1328 258.91 55.0488 254.808 54.9316C250.413 54.8145 246.605 55.7227 243.382 57.6562C240.16 59.5312 237.464 62.0801 235.296 65.3027C233.128 68.5254 231.4 72.041 230.111 75.8496C228.88 79.6582 228.031 83.3789 227.562 87.0117Z" fill="white"/>
<path d="M319.594 112.939L353.256 39.9023H367.143L359.233 63.0176L325.658 135H313.266L319.594 112.939ZM319.682 39.9023L323.461 115.488L321.352 135H308.432L299.994 39.9023H319.682ZM374.174 112.324L402.563 39.9023H423.305L381.908 135H368.197L374.174 112.324ZM368.813 39.9023L377.25 114.258L376.108 135H364.77L355.541 60.9082L355.805 39.9023H368.813Z" fill="white"/>
<path d="M485.728 136.758C479.224 136.641 473.453 135.381 468.414 132.979C463.433 130.518 459.303 127.207 456.021 123.047C452.74 118.828 450.367 113.994 448.902 108.545C447.437 103.037 446.939 97.1777 447.408 90.9668L447.76 87.3633C448.404 80.9766 449.957 74.8242 452.418 68.9062C454.879 62.9297 458.16 57.627 462.262 52.998C466.422 48.3105 471.314 44.6191 476.939 41.9238C482.564 39.2285 488.834 37.9688 495.748 38.1445C502.369 38.2617 507.965 39.6387 512.535 42.2754C517.105 44.9121 520.738 48.4277 523.433 52.8223C526.129 57.1582 527.916 62.0801 528.795 67.5879C529.732 73.0957 529.879 78.8086 529.234 84.7266L528.004 93.7793H456.637L459.097 78.5742L509.459 78.6621L509.81 76.8164C510.338 73.125 510.133 69.6387 509.195 66.3574C508.316 63.0762 506.676 60.3809 504.273 58.2715C501.871 56.1621 498.648 55.0488 494.605 54.9316C490.211 54.8145 486.431 55.7227 483.267 57.6562C480.162 59.5898 477.584 62.1973 475.533 65.4785C473.482 68.7598 471.871 72.334 470.699 76.2012C469.586 80.0098 468.795 83.7305 468.326 87.3633L467.974 90.8789C467.623 94.3359 467.711 97.7637 468.238 101.162C468.765 104.561 469.791 107.666 471.314 110.479C472.838 113.232 474.947 115.488 477.642 117.246C480.338 118.945 483.678 119.854 487.662 119.971C492.642 120.088 497.154 119.062 501.197 116.895C505.299 114.668 509.019 111.797 512.359 108.281L522.555 119.092C519.859 123.135 516.519 126.475 512.535 129.111C508.609 131.748 504.332 133.711 499.703 135C495.133 136.23 490.474 136.816 485.728 136.758Z" fill="white"/>
<path d="M556.755 39.9023L569.235 71.2793L592.087 39.9023H615.905L579.958 87.627L600.964 135H579.43L565.807 102.217L541.989 135H518.171L555.436 85.6055L535.221 39.9023H556.755Z" fill="white"/>
<path d="M636.745 59.4141L617.234 171.562H596.492L619.343 39.9023H638.415L636.745 59.4141ZM691.941 86.0449L691.765 87.8906C691.062 93.6328 689.685 99.4336 687.634 105.293C685.642 111.094 682.917 116.426 679.46 121.289C676.062 126.094 671.872 129.932 666.892 132.803C661.911 135.674 656.052 137.021 649.314 136.846C643.396 136.729 638.415 135.322 634.372 132.627C630.329 129.873 627.107 126.299 624.704 121.904C622.302 117.51 620.603 112.705 619.607 107.49C618.669 102.217 618.318 97.002 618.552 91.8457L619.431 84.8145C620.369 79.248 621.951 73.6816 624.177 68.1152C626.462 62.5488 629.392 57.4805 632.966 52.9102C636.54 48.2812 640.788 44.6191 645.71 41.9238C650.632 39.2285 656.286 37.9688 662.673 38.1445C669.177 38.3203 674.48 39.873 678.581 42.8027C682.683 45.7324 685.788 49.541 687.898 54.2285C690.066 58.916 691.413 64.043 691.941 69.6094C692.527 75.1758 692.527 80.6543 691.941 86.0449ZM671.023 87.8027L671.286 85.8691C671.579 82.8809 671.667 79.6289 671.55 76.1133C671.492 72.5977 670.994 69.2871 670.056 66.1816C669.119 63.0176 667.507 60.4102 665.222 58.3594C662.995 56.3086 659.89 55.2246 655.906 55.1074C652.273 54.9316 648.992 55.5176 646.062 56.8652C643.132 58.1543 640.554 59.9707 638.328 62.3145C636.101 64.6582 634.226 67.3242 632.703 70.3125C631.238 73.3008 630.183 76.4062 629.538 79.6289L626.814 96.8555C626.638 100.723 627.165 104.414 628.396 107.93C629.685 111.387 631.677 114.229 634.372 116.455C637.126 118.682 640.613 119.854 644.831 119.971C649.167 120.088 652.888 119.18 655.994 117.246C659.099 115.312 661.677 112.734 663.728 109.512C665.779 106.23 667.39 102.686 668.562 98.877C669.792 95.0098 670.613 91.3184 671.023 87.8027Z" fill="white"/>
<path d="M735.809 0L712.342 135H691.688L715.067 0H735.809Z" fill="white"/>
<path d="M728.261 89.0332L728.524 87.0117C729.228 80.4492 730.839 74.209 733.358 68.291C735.878 62.373 739.218 57.1289 743.378 52.5586C747.597 47.9297 752.548 44.3262 758.231 41.748C763.974 39.1699 770.36 37.9688 777.392 38.1445C784.188 38.2617 790.019 39.668 794.882 42.3633C799.804 45.0586 803.788 48.6621 806.835 53.1738C809.94 57.627 812.108 62.7246 813.339 68.4668C814.569 74.1504 814.892 80.0977 814.306 86.3086L814.13 88.3301C813.368 94.8926 811.698 101.104 809.12 106.963C806.601 112.822 803.231 118.037 799.013 122.607C794.853 127.119 789.901 130.664 784.159 133.242C778.476 135.762 772.147 136.934 765.175 136.758C758.437 136.641 752.606 135.264 747.685 132.627C742.821 129.932 738.837 126.357 735.731 121.904C732.685 117.451 730.546 112.412 729.315 106.787C728.085 101.104 727.733 95.1855 728.261 89.0332ZM749.091 87.0117L748.915 89.0332C748.622 92.2559 748.593 95.6543 748.827 99.2285C749.062 102.803 749.765 106.143 750.937 109.248C752.108 112.354 753.925 114.902 756.386 116.895C758.847 118.887 762.128 119.941 766.229 120.059C770.565 120.176 774.345 119.297 777.567 117.422C780.79 115.547 783.485 113.027 785.653 109.863C787.821 106.699 789.55 103.242 790.839 99.4922C792.128 95.6836 792.978 91.9629 793.388 88.3301L793.563 86.3086C793.915 83.1445 793.974 79.7754 793.739 76.2012C793.505 72.5684 792.802 69.1699 791.63 66.0059C790.458 62.7832 788.642 60.1758 786.181 58.1836C783.72 56.1328 780.438 55.0488 776.337 54.9316C771.942 54.8145 768.134 55.7227 764.911 57.6562C761.688 59.5312 758.993 62.0801 756.825 65.3027C754.657 68.5254 752.929 72.041 751.64 75.8496C750.409 79.6582 749.56 83.3789 749.091 87.0117Z" fill="white"/>
<path d="M846.221 59.0625L833.037 135H812.383L828.906 39.9023H848.506L846.221 59.0625ZM877.158 39.1113L874.873 58.8867C873.525 58.6523 872.148 58.4473 870.742 58.2715C869.394 58.0957 868.047 58.0078 866.699 58.0078C863.125 57.9492 859.902 58.4473 857.031 59.502C854.16 60.5566 851.64 62.0801 849.472 64.0723C847.305 66.0059 845.488 68.3496 844.023 71.1035C842.558 73.7988 841.416 76.8164 840.596 80.1562L835.674 80.5078C836.26 75.8789 837.256 71.0742 838.662 66.0938C840.127 61.1133 842.148 56.4844 844.726 52.207C847.305 47.8711 850.586 44.3848 854.57 41.748C858.555 39.0527 863.388 37.7637 869.072 37.8809C870.42 37.8809 871.767 37.998 873.115 38.2324C874.463 38.4668 875.81 38.7598 877.158 39.1113Z" fill="white"/>
<path d="M904.151 136.758C897.647 136.641 891.876 135.381 886.837 132.979C881.856 130.518 877.725 127.207 874.444 123.047C871.163 118.828 868.79 113.994 867.325 108.545C865.86 103.037 865.362 97.1777 865.831 90.9668L866.182 87.3633C866.827 80.9766 868.38 74.8242 870.84 68.9062C873.301 62.9297 876.583 57.627 880.684 52.998C884.844 48.3105 889.737 44.6191 895.362 41.9238C900.987 39.2285 907.256 37.9688 914.171 38.1445C920.792 38.2617 926.387 39.6387 930.958 42.2754C935.528 44.9121 939.161 48.4277 941.856 52.8223C944.551 57.1582 946.339 62.0801 947.217 67.5879C948.155 73.0957 948.301 78.8086 947.657 84.7266L946.426 93.7793H875.059L877.52 78.5742L927.881 78.6621L928.233 76.8164C928.76 73.125 928.555 69.6387 927.618 66.3574C926.739 63.0762 925.098 60.3809 922.696 58.2715C920.294 56.1621 917.071 55.0488 913.028 54.9316C908.633 54.8145 904.854 55.7227 901.69 57.6562C898.585 59.5898 896.006 62.1973 893.956 65.4785C891.905 68.7598 890.294 72.334 889.122 76.2012C888.008 80.0098 887.217 83.7305 886.749 87.3633L886.397 90.8789C886.046 94.3359 886.133 97.7637 886.661 101.162C887.188 104.561 888.214 107.666 889.737 110.479C891.26 113.232 893.37 115.488 896.065 117.246C898.76 118.945 902.1 119.854 906.085 119.971C911.065 120.088 915.577 119.062 919.62 116.895C923.721 114.668 927.442 111.797 930.782 108.281L940.977 119.092C938.282 123.135 934.942 126.475 930.958 129.111C927.032 131.748 922.755 133.711 918.126 135C913.555 136.23 908.897 136.816 904.151 136.758Z" fill="white"/>
</svg>
